<?xml version="1.0" encoding="UTF-8"?>
<!DOCTYPE svg PUBLIC "-//W3C//DTD SVG 1.1//EN" "http://www.w3.org/Graphics/SVG/1.1/DTD/svg11.dtd">
<!-- Creator: CorelDRAW 2017 -->
<svg xmlns="http://www.w3.org/2000/svg" xml:space="preserve" width="66.1458mm" height="66.1458mm" version="1.1" style="shape-rendering:geometricPrecision; text-rendering:geometricPrecision; image-rendering:optimizeQuality; fill-rule:evenodd; clip-rule:evenodd"
viewBox="0 0 6614.58 6614.58"
 xmlns:xlink="http://www.w3.org/1999/xlink">
 <defs>
  <style type="text/css">
   <![CDATA[
    .fil0 {fill:#FEFEFE}
   ]]>
  </style>
 </defs>
 <g id="Слой_x0020_1">
  <metadata id="CorelCorpID_0Corel-Layer"/>
  <path class="fil0" d="M3844.1 506.03c-457.43,79.78 -799.59,361.95 -1085.08,711.3 -265.01,324.27 -536.14,643.98 -818.01,953.95 -626.04,688.46 -1214,1302.7 -1092.24,2308.49 115.09,950.63 884.44,1727.79 1874.17,1647.94 923.87,-74.54 1445.66,-911.3 2005.29,-1546.97 282.82,-321.25 634.09,-648.48 870.74,-996.83 71.59,-105.39 380.03,-654.6 -12.04,-445.97 -376.41,200.31 -1370.63,1467.54 -1686.35,1873.54 -269.55,346.62 -589.39,656.45 -1033.78,752.07 -434.89,93.58 -943.18,-46.18 -1242.5,-382.09 -300.51,-337.24 -409.39,-922.6 -357.08,-1360.28 56.54,-473.17 269.61,-857.64 590.22,-1202.48 287.79,-309.53 570.22,-586.1 850.68,-909.38 285.85,-329.5 513.91,-700.43 917.4,-909.05 401.62,-207.63 851.16,-149.85 1080.45,270.87 225.7,414.12 61.66,914.8 -183.88,1280.67 -232.89,347.04 -557.7,637.84 -816.32,973.68 -402.62,522.83 -497.1,757.02 -1196.82,849.74 -117.14,15.52 -233.04,68.6 -237.57,-96.73 -8.89,-323.83 116.33,-347.33 302.96,-571.67 103.38,-124.26 275.58,-386.12 404.15,-474.15 60.04,-41.11 169.15,-183.9 201.2,-247.89 49.59,-99.03 130.82,-146.85 218.92,-224.21 83.88,-73.65 424.12,-470.23 211.89,-540.72 -44.44,-14.76 -387.42,289.02 -449.76,339.77 -300.56,244.68 -650.4,617.76 -868.79,936.48 -686.01,1001.15 221.79,1748.36 1106.28,947.5 267.27,-242 586.5,-672.53 837.65,-961.06 309.76,-355.86 587.22,-562.18 786.99,-1017.6 415.71,-947.73 53.63,-2173.85 -1178.77,-1958.92z"/>
 </g>
</svg>
