<?xml version="1.0" encoding="UTF-8"?>
<!DOCTYPE svg PUBLIC "-//W3C//DTD SVG 1.1//EN" "http://www.w3.org/Graphics/SVG/1.1/DTD/svg11.dtd">
<!-- Creator: CorelDRAW 2017 -->
<svg xmlns="http://www.w3.org/2000/svg" xml:space="preserve" width="66.1456mm" height="66.1458mm" version="1.1" style="shape-rendering:geometricPrecision; text-rendering:geometricPrecision; image-rendering:optimizeQuality; fill-rule:evenodd; clip-rule:evenodd"
viewBox="0 0 6614.56 6614.58"
 xmlns:xlink="http://www.w3.org/1999/xlink">
 <defs>
  <style type="text/css">
   <![CDATA[
    .fil0 {fill:#FEFEFE}
   ]]>
  </style>
 </defs>
 <g id="Слой_x0020_1">
  <metadata id="CorelCorpID_0Corel-Layer"/>
  <path class="fil0" d="M2192.23 4190.02c0,-324.62 118.62,-573.82 316.33,-798.71 22.63,-25.74 41.26,-29.2 69.95,-57.82 279.42,-278.78 825.85,-356.07 1205,-165.6 126.94,63.76 258.3,145.29 346.28,257.7 95.67,122.25 88.31,74.42 192.1,284.12 208.83,421.96 73.21,1008.52 -262.6,1290.4 -83.48,70.07 -193.06,148.97 -295.27,192.56 -72.84,31.07 -240.12,86.04 -328.81,89.35 -61.15,2.28 -75.18,12.33 -127.93,12.33 -55.83,0 -57.29,-10.86 -116.15,-12.5 -48.3,-1.34 -76.33,-8.05 -120.97,-18.42 -202.71,-47.09 -400.58,-147.29 -544.03,-292.26 -169.28,-171.09 -333.9,-445.97 -333.9,-781.15zm-871.12 -2892.11c0,-59.39 17.01,-118.72 43.78,-153.69 20.26,-26.46 87.77,-67.02 130.46,-67.02l2613.36 0c90.84,0 185.86,77.05 185.86,162.64l0 650.43c0,99.19 -75.06,174.25 -174.24,174.25l-2624.98 0c-107.32,0 -174.24,-104.71 -174.24,-197.48l0 -569.13zm-987.25 -371.66l0 4762.08 73.56 216.84c90.37,180.56 257.3,312.81 456.02,357.01 3.24,0.72 28.93,5.59 29.18,5.66 48.19,12.24 -24.17,-9.82 18.32,4.91 2.29,0.79 6.11,3.04 7.89,3.74 1.75,0.69 5.02,2.7 7.41,4.22l4762.08 0c29.47,-18.72 105.57,-17.88 216.84,-73.56 304.33,-152.32 323.91,-377.56 367.58,-503.52l7.96 -15.3 0 -4007.11c-20.24,-31.86 -6.92,-21.51 -16.15,-76.8 -2.6,-15.55 -9.8,-51.28 -14.22,-67.09 -34,-121.71 -85.77,-237.09 -160.12,-339.31 -71.38,-98.13 -575.53,-602.28 -673.66,-673.66 -173.78,-126.4 -281.75,-147.48 -458.81,-180 -23.86,-4.38 -11.8,-2.49 -24.39,-10.49l-4007.11 0c-2.39,1.52 -5.66,3.53 -7.41,4.22l-26.21 8.65c-527.92,134.19 -508.05,499.68 -558.76,579.51z"/>
 </g>
</svg>
